<svg width="82" height="29" viewBox="0 0 82 29" fill="none" xmlns="http://www.w3.org/2000/svg">
<path d="M14.6217 8.51297V8.79634C14.6217 9.68422 14.606 10.4871 14.5745 11.205C14.5493 11.9165 14.48 12.7414 14.3667 13.6797C14.2533 14.6117 14.0802 15.6286 13.8472 16.7306L11.4858 16.485C11.7314 15.3453 11.9203 14.174 12.0525 12.9713L2.07802 13.538L1.73798 11.4789L12.1942 11.1388C12.2257 10.6099 12.2477 9.86684 12.2603 8.90969H2.30472V6.98279H14.6217V8.51297ZM16.1897 20.7544H0.51006V18.7897H6.12072V14.6337H8.51989V18.7897H16.1897V20.7544ZM31.1788 15.8238H28.7607V5.54707H31.1788V15.8238ZM25.9837 8.75856H20.1464V12.839C21.834 12.8264 23.2099 12.7824 24.2741 12.7068C25.3383 12.6312 26.3805 12.4927 27.4006 12.2912L27.6084 14.2181C26.5064 14.4448 25.3635 14.5928 24.1796 14.662C23.0021 14.7313 21.3617 14.7659 19.2585 14.7659H17.7661V6.83166H25.9837V8.75856ZM25.3226 15.9939C26.519 15.9876 27.5612 16.1198 28.449 16.3906C29.3369 16.655 30.0201 17.0423 30.4987 17.5524C30.9836 18.0624 31.2292 18.6701 31.2355 19.3754C31.2292 20.0806 30.9836 20.6851 30.4987 21.1889C30.0201 21.699 29.3369 22.0862 28.449 22.3507C27.5675 22.6215 26.5253 22.7569 25.3226 22.7569C24.1009 22.7569 23.0462 22.6215 22.1583 22.3507C21.2704 22.0862 20.5903 21.699 20.1181 21.1889C19.6458 20.6851 19.4096 20.0806 19.4096 19.3754C19.4096 18.6701 19.6458 18.0624 20.1181 17.5524C20.5903 17.0423 21.2704 16.655 22.1583 16.3906C23.0462 16.1198 24.1009 15.9876 25.3226 15.9939ZM25.3226 17.883C22.9927 17.883 21.8277 18.3804 21.8277 19.3754C21.8277 19.8728 22.1237 20.2507 22.7156 20.5088C23.3075 20.7607 24.1765 20.8867 25.3226 20.8867C26.4623 20.8867 27.3345 20.7607 27.939 20.5088C28.5498 20.2507 28.8552 19.8728 28.8552 19.3754C28.8552 18.8716 28.5529 18.4969 27.9484 18.2513C27.3502 18.0058 26.4749 17.883 25.3226 17.883ZM41.3507 10.0809H33.0386V8.17293H36.0234V6.01935H38.4037V8.17293H41.3507V10.0809ZM37.2324 10.8555C37.9566 10.8555 38.602 11.0318 39.1688 11.3844C39.7418 11.7308 40.1889 12.2125 40.51 12.8296C40.8375 13.4467 41.0044 14.1488 41.0106 14.936C41.0044 15.7231 40.8375 16.4284 40.51 17.0518C40.1889 17.6752 39.7418 18.1632 39.1688 18.5158C38.602 18.8622 37.9566 19.0353 37.2324 19.0353C36.5083 19.0353 35.8565 18.8622 35.2772 18.5158C34.7042 18.1632 34.2539 17.6752 33.9265 17.0518C33.599 16.4284 33.4353 15.7231 33.4353 14.936C33.4353 14.1551 33.599 13.4561 33.9265 12.839C34.2539 12.2156 34.7042 11.7308 35.2772 11.3844C35.8565 11.0318 36.5083 10.8555 37.2324 10.8555ZM37.2324 12.8579C36.7224 12.8579 36.3131 13.0437 36.0045 13.4152C35.7022 13.7867 35.5511 14.2937 35.5511 14.936C35.5511 15.5783 35.7022 16.082 36.0045 16.4472C36.3131 16.8125 36.7224 16.9951 37.2324 16.9951C37.7236 16.9951 38.1203 16.8125 38.4226 16.4472C38.7311 16.082 38.8885 15.5783 38.8948 14.936C38.8885 14.2937 38.7311 13.7867 38.4226 13.4152C38.1203 13.0437 37.7236 12.8579 37.2324 12.8579ZM47.9248 22.738H45.639V14.4637H44.241V22.0012H41.993V5.88711H44.241V12.5368H45.639V5.54707H47.9248V22.738Z" fill="#00E0C8"/>
<path d="M63.1973 13.5002H51.3148V6.35939H63.0273V8.28628H53.7895V11.5356H63.1973V13.5002ZM65.0486 17.1273H61.4593V22.738H59.0223V17.1273H55.3952V22.738H52.9961V17.1273H49.3123V15.2004H65.0486V17.1273ZM73.4447 6.43495C74.6727 6.43495 75.7778 6.63016 76.7601 7.02058C77.7425 7.41099 78.5138 7.96513 79.0743 8.68299C79.6347 9.39456 79.9181 10.2132 79.9244 11.1388C79.9181 11.9826 79.6914 12.7383 79.2443 13.4058C78.7972 14.0733 78.1738 14.6148 77.3741 15.0304C76.5807 15.4397 75.6676 15.7042 74.6349 15.8238V18.752H81.3412V20.7355H65.6049V18.752H72.2357V15.8144C71.2093 15.701 70.2994 15.4366 69.5059 15.021C68.7125 14.6054 68.0922 14.067 67.6452 13.4058C67.2044 12.7383 66.984 11.9826 66.984 11.1388C66.984 10.2132 67.261 9.39456 67.8152 8.68299C68.3756 7.96513 69.147 7.41099 70.1293 7.02058C71.1117 6.63016 72.2168 6.43495 73.4447 6.43495ZM73.4447 8.36184C72.645 8.36184 71.9366 8.47519 71.3195 8.70188C70.7024 8.92228 70.2206 9.24343 69.8743 9.66533C69.5343 10.0872 69.3642 10.5784 69.3642 11.1388C69.3642 11.7308 69.5343 12.2408 69.8743 12.669C70.2206 13.0909 70.6992 13.4152 71.31 13.6419C71.9271 13.8623 72.6387 13.9725 73.4447 13.9725C74.257 13.9725 74.9686 13.8623 75.5794 13.6419C76.1965 13.4215 76.6751 13.0972 77.0151 12.669C77.3615 12.2408 77.5378 11.7308 77.5441 11.1388C77.5378 10.5721 77.3615 10.0809 77.0151 9.66533C76.6751 9.24343 76.1965 8.92228 75.5794 8.70188C74.9623 8.47519 74.2507 8.36184 73.4447 8.36184Z" fill="#FFC453"/>
</svg>
