<svg width="123" height="36" viewBox="0 0 123 36" fill="none" xmlns="http://www.w3.org/2000/svg">
<path d="M31.5892 23.4886C28.3358 23.4886 25.6985 20.8511 25.6985 17.5978C25.6985 14.3444 28.3358 11.707 31.5892 11.707C34.8426 11.707 37.48 14.3444 37.48 17.5978C37.48 20.8511 34.8426 23.4886 31.5892 23.4886Z" fill="#FFC453"/>
<path d="M31.9675 27.661C29.8379 30.7 26.801 32.9868 23.2919 34.1939C19.7829 35.4011 15.9818 35.4665 12.4333 34.3809C8.88475 33.2952 5.77093 31.1143 3.53796 28.1504C1.30498 25.1866 0.0674486 21.592 0.00267737 17.8817C-0.0620939 14.1714 1.04922 10.5358 3.17739 7.49578C5.30555 4.4558 8.34135 2.16746 11.8498 0.958629C15.3583 -0.250201 19.1593 -0.31748 22.7084 0.766433C26.2574 1.85035 29.3723 4.02982 31.6067 6.99258L26.1044 11.1423C24.7461 9.3413 22.8527 8.01647 20.6954 7.3576C18.538 6.69873 16.2275 6.73962 14.0948 7.47443C11.9621 8.20924 10.1168 9.60024 8.82314 11.4481C7.52949 13.296 6.85397 15.506 6.89334 17.7614C6.93271 20.0167 7.68496 22.2018 9.04231 24.0034C10.3997 25.805 12.2925 27.1308 14.4495 27.7907C16.6065 28.4506 18.9171 28.4108 21.0501 27.6771C23.1831 26.9433 25.0292 25.5532 26.3237 23.7059L31.9675 27.661Z" fill="#00E0C8"/>
<path d="M55.6217 12.513V12.7963C55.6217 13.6842 55.606 14.4871 55.5745 15.205C55.5493 15.9165 55.48 16.7414 55.3667 17.6797C55.2533 18.6117 55.0802 19.6286 54.8472 20.7306L52.4858 20.485C52.7314 19.3453 52.9203 18.174 53.0525 16.9713L43.078 17.538L42.738 15.4789L53.1942 15.1388C53.2257 14.6099 53.2477 13.8668 53.2603 12.9097H43.3047V10.9828H55.6217V12.513ZM57.1897 24.7544H41.5101V22.7897H47.1207V18.6337H49.5199V22.7897H57.1897V24.7544ZM72.1788 19.8238H69.7607V9.54707H72.1788V19.8238ZM66.9837 12.7586H61.1464V16.839C62.834 16.8264 64.2099 16.7824 65.2741 16.7068C66.3383 16.6312 67.3805 16.4927 68.4006 16.2912L68.6084 18.2181C67.5064 18.4448 66.3635 18.5928 65.1796 18.662C64.0021 18.7313 62.3617 18.7659 60.2585 18.7659H58.7661V10.8317H66.9837V12.7586ZM66.3226 19.9939C67.519 19.9876 68.5612 20.1198 69.449 20.3906C70.3369 20.655 71.0201 21.0423 71.4987 21.5524C71.9836 22.0624 72.2292 22.6701 72.2355 23.3754C72.2292 24.0806 71.9836 24.6851 71.4987 25.1889C71.0201 25.699 70.3369 26.0862 69.449 26.3507C68.5675 26.6215 67.5253 26.7569 66.3226 26.7569C65.1009 26.7569 64.0462 26.6215 63.1583 26.3507C62.2704 26.0862 61.5903 25.699 61.1181 25.1889C60.6458 24.6851 60.4096 24.0806 60.4096 23.3754C60.4096 22.6701 60.6458 22.0624 61.1181 21.5524C61.5903 21.0423 62.2704 20.655 63.1583 20.3906C64.0462 20.1198 65.1009 19.9876 66.3226 19.9939ZM66.3226 21.883C63.9927 21.883 62.8277 22.3804 62.8277 23.3754C62.8277 23.8728 63.1237 24.2507 63.7156 24.5088C64.3075 24.7607 65.1765 24.8867 66.3226 24.8867C67.4623 24.8867 68.3345 24.7607 68.939 24.5088C69.5498 24.2507 69.8552 23.8728 69.8552 23.3754C69.8552 22.8716 69.5529 22.4969 68.9484 22.2513C68.3502 22.0058 67.4749 21.883 66.3226 21.883ZM82.3507 14.0809H74.0386V12.1729H77.0234V10.0193H79.4037V12.1729H82.3507V14.0809ZM78.2324 14.8555C78.9566 14.8555 79.602 15.0318 80.1688 15.3844C80.7418 15.7308 81.1889 16.2125 81.51 16.8296C81.8375 17.4467 82.0044 18.1488 82.0106 18.936C82.0044 19.7231 81.8375 20.4284 81.51 21.0518C81.1889 21.6752 80.7418 22.1632 80.1688 22.5158C79.602 22.8622 78.9566 23.0353 78.2324 23.0353C77.5083 23.0353 76.8565 22.8622 76.2772 22.5158C75.7042 22.1632 75.2539 21.6752 74.9265 21.0518C74.599 20.4284 74.4353 19.7231 74.4353 18.936C74.4353 18.1551 74.599 17.4561 74.9265 16.839C75.2539 16.2156 75.7042 15.7308 76.2772 15.3844C76.8565 15.0318 77.5083 14.8555 78.2324 14.8555ZM78.2324 16.8579C77.7224 16.8579 77.3131 17.0437 77.0045 17.4152C76.7022 17.7867 76.5511 18.2937 76.5511 18.936C76.5511 19.5783 76.7022 20.082 77.0045 20.4472C77.3131 20.8125 77.7224 20.9951 78.2324 20.9951C78.7236 20.9951 79.1203 20.8125 79.4226 20.4472C79.7311 20.082 79.8885 19.5783 79.8948 18.936C79.8885 18.2937 79.7311 17.7867 79.4226 17.4152C79.1203 17.0437 78.7236 16.8579 78.2324 16.8579ZM88.9248 26.738H86.639V18.4637H85.241V26.0012H82.993V9.88711H85.241V16.5368H86.639V9.54707H88.9248V26.738Z" fill="#00E0C8"/>
<path d="M104.197 17.5002H92.3148V10.3594H104.027V12.2863H94.7895V15.5356H104.197V17.5002ZM106.049 21.1273H102.459V26.738H100.022V21.1273H96.3952V26.738H93.9961V21.1273H90.3123V19.2004H106.049V21.1273ZM114.445 10.435C115.673 10.435 116.778 10.6302 117.76 11.0206C118.742 11.411 119.514 11.9651 120.074 12.683C120.635 13.3946 120.918 14.2132 120.924 15.1388C120.918 15.9826 120.691 16.7383 120.244 17.4058C119.797 18.0733 119.174 18.6148 118.374 19.0304C117.581 19.4397 116.668 19.7042 115.635 19.8238V22.752H122.341V24.7355H106.605V22.752H113.236V19.8144C112.209 19.701 111.299 19.4366 110.506 19.021C109.713 18.6054 109.092 18.067 108.645 17.4058C108.204 16.7383 107.984 15.9826 107.984 15.1388C107.984 14.2132 108.261 13.3946 108.815 12.683C109.376 11.9651 110.147 11.411 111.129 11.0206C112.112 10.6302 113.217 10.435 114.445 10.435ZM114.445 12.3618C113.645 12.3618 112.937 12.4752 112.319 12.7019C111.702 12.9223 111.221 13.2434 110.874 13.6653C110.534 14.0872 110.364 14.5784 110.364 15.1388C110.364 15.7308 110.534 16.2408 110.874 16.669C111.221 17.0909 111.699 17.4152 112.31 17.6419C112.927 17.8623 113.639 17.9725 114.445 17.9725C115.257 17.9725 115.969 17.8623 116.579 17.6419C117.197 17.4215 117.675 17.0972 118.015 16.669C118.361 16.2408 118.538 15.7308 118.544 15.1388C118.538 14.5721 118.361 14.0809 118.015 13.6653C117.675 13.2434 117.197 12.9223 116.579 12.7019C115.962 12.4752 115.251 12.3618 114.445 12.3618Z" fill="#FFC453"/>
</svg>
