<svg width="1920" height="752" viewBox="0 0 1920 752" fill="none" xmlns="http://www.w3.org/2000/svg">
<path fill-rule="evenodd" clip-rule="evenodd" d="M1920 456.581C1908.64 485.742 1895.55 513.75 1880.5 540C1728.03 805.888 1435.5 746 1435.5 746C1435.5 746 1009 676 905.5 482.297C802 288.594 715.242 287.975 636.489 328.862C630.591 331.924 624.282 335.292 617.55 338.885C534.394 383.274 386.747 462.088 153.109 424.252C84.8284 413.195 35.5541 364.533 0 299.409V0H1920V456.581Z" fill="#F2FFFE"/>
<path fill-rule="evenodd" clip-rule="evenodd" d="M1920 355.103C1778.29 598.287 1601.07 610.471 1504.8 616.305C1405.32 622.334 1070.82 592.868 953.021 378.446C835.225 164.024 610 306 610 306C610 306 472 408.5 243.5 320C133.881 277.544 73.3983 135.897 40.1348 0H1920V355.103Z" fill="#D8FFFB"/>
</svg>
