<svg width="38" height="36" viewBox="0 0 38 36" fill="none" xmlns="http://www.w3.org/2000/svg">
<path d="M31.5892 23.4886C28.3358 23.4886 25.6985 20.8511 25.6985 17.5978C25.6985 14.3444 28.3358 11.707 31.5892 11.707C34.8426 11.707 37.48 14.3444 37.48 17.5978C37.48 20.8511 34.8426 23.4886 31.5892 23.4886Z" fill="#FFC453"/>
<path d="M31.9675 27.661C29.8379 30.7 26.801 32.9868 23.2919 34.1939C19.7829 35.4011 15.9818 35.4665 12.4333 34.3809C8.88475 33.2952 5.77093 31.1143 3.53796 28.1504C1.30498 25.1866 0.0674486 21.592 0.00267737 17.8817C-0.0620939 14.1714 1.04922 10.5358 3.17739 7.49578C5.30555 4.4558 8.34135 2.16746 11.8498 0.958629C15.3583 -0.250201 19.1593 -0.31748 22.7084 0.766433C26.2574 1.85035 29.3723 4.02982 31.6067 6.99258L26.1044 11.1423C24.7461 9.3413 22.8527 8.01647 20.6954 7.3576C18.538 6.69873 16.2275 6.73962 14.0948 7.47443C11.9621 8.20924 10.1168 9.60024 8.82314 11.4481C7.52949 13.296 6.85397 15.506 6.89334 17.7614C6.93271 20.0167 7.68496 22.2018 9.04231 24.0034C10.3997 25.805 12.2925 27.1308 14.4495 27.7907C16.6065 28.4506 18.9171 28.4108 21.0501 27.6771C23.1831 26.9433 25.0292 25.5532 26.3237 23.7059L31.9675 27.661Z" fill="#00E0C8"/>
</svg>
